<svg width="57" height="20" viewBox="0 0 57 20" fill="none" xmlns="http://www.w3.org/2000/svg">
<rect x="0.5" y="0.5" width="56" height="19" rx="3.5" fill="white"/>
<rect x="0.5" y="0.5" width="56" height="19" rx="3.5" stroke="black"/>
<path d="M10.1065 12L10.831 7.63636H11.7536L11.4553 9.43679H13.3281L13.6264 7.63636H14.5469L13.8224 12H12.902L13.2003 10.1974H11.3274L11.0291 12H10.1065ZM15.4908 12.0618C15.2834 12.0618 15.1037 12.0256 14.9517 11.9531C14.8011 11.8793 14.6903 11.7699 14.6193 11.625C14.5483 11.4801 14.5305 11.3004 14.5661 11.0859C14.5973 10.9041 14.6563 10.7521 14.7429 10.63C14.831 10.5064 14.9382 10.407 15.0646 10.3317C15.1911 10.2564 15.331 10.1989 15.4844 10.1591C15.6392 10.1193 15.799 10.0923 15.9638 10.0781C16.1541 10.0582 16.3089 10.0391 16.4283 10.0206C16.549 10.0021 16.6392 9.97585 16.6989 9.94176C16.7585 9.90625 16.7947 9.85369 16.8075 9.78409V9.77131C16.8288 9.63778 16.804 9.53409 16.733 9.46023C16.6634 9.38494 16.5518 9.3473 16.3984 9.3473C16.2365 9.3473 16.0987 9.38281 15.9851 9.45384C15.8729 9.52486 15.7926 9.61506 15.7443 9.72443L14.9176 9.65625C14.9915 9.45739 15.103 9.28551 15.2521 9.14062C15.4027 8.99432 15.5838 8.8821 15.7955 8.80398C16.0071 8.72443 16.2443 8.68466 16.5071 8.68466C16.6889 8.68466 16.8587 8.70597 17.0163 8.74858C17.1754 8.79119 17.3125 8.85724 17.4276 8.94673C17.544 9.03622 17.6278 9.15128 17.679 9.2919C17.7315 9.43111 17.7422 9.59801 17.7109 9.79261L17.3423 12H16.4815L16.5582 11.5462H16.5327C16.4631 11.6484 16.3778 11.7386 16.277 11.8168C16.1761 11.8935 16.0604 11.9538 15.9297 11.9979C15.799 12.0405 15.6527 12.0618 15.4908 12.0618ZM15.8551 11.4354C15.9872 11.4354 16.1087 11.4091 16.2195 11.3565C16.3317 11.3026 16.424 11.2301 16.4964 11.1392C16.5703 11.0483 16.6172 10.9453 16.6371 10.8303L16.6925 10.483C16.6641 10.5014 16.6229 10.5178 16.5689 10.532C16.5163 10.5462 16.4588 10.5597 16.3963 10.5724C16.3352 10.5838 16.2734 10.5945 16.2109 10.6044C16.1484 10.6129 16.0923 10.6214 16.0426 10.63C15.9332 10.6456 15.8352 10.6705 15.7486 10.7045C15.6619 10.7386 15.5916 10.7848 15.5376 10.843C15.4837 10.8999 15.4503 10.9709 15.4375 11.0561C15.4176 11.1797 15.4467 11.2741 15.5249 11.3395C15.6044 11.4034 15.7145 11.4354 15.8551 11.4354ZM19.2738 10.108L18.9585 12H18.0529L18.5984 8.72727H19.4613L19.3675 9.30469H19.4038C19.5075 9.11293 19.6538 8.96165 19.8427 8.85085C20.033 8.74006 20.2496 8.68466 20.4925 8.68466C20.7198 8.68466 20.9094 8.73438 21.0614 8.83381C21.2148 8.93324 21.3228 9.07457 21.3853 9.25781C21.4492 9.44105 21.4599 9.66051 21.4173 9.91619L21.0678 12H20.1602L20.4819 10.0781C20.5146 9.87784 20.489 9.72159 20.4052 9.60938C20.3228 9.49574 20.19 9.43892 20.0067 9.43892C19.8846 9.43892 19.7724 9.4652 19.6701 9.51776C19.5678 9.57031 19.4819 9.64702 19.4123 9.74787C19.3441 9.8473 19.2979 9.96733 19.2738 10.108ZM22.9806 12.0533C22.7306 12.0533 22.5154 11.9893 22.335 11.8615C22.1561 11.7322 22.0282 11.5426 21.9515 11.2926C21.8762 11.0412 21.8691 10.733 21.9302 10.3679C21.9927 9.9929 22.1049 9.68111 22.2669 9.43253C22.4288 9.18253 22.6206 8.99574 22.8422 8.87216C23.0637 8.74716 23.2946 8.68466 23.5346 8.68466C23.7164 8.68466 23.8635 8.71591 23.9757 8.77841C24.0893 8.83949 24.1767 8.91619 24.2377 9.00852C24.2988 9.09943 24.3414 9.18892 24.3656 9.27699H24.3933L24.6681 7.63636H25.5737L24.8493 12H23.9544L24.0417 11.4759H24.0034C23.9466 11.5668 23.8713 11.657 23.7775 11.7464C23.6852 11.8345 23.573 11.9077 23.4409 11.9659C23.3102 12.0241 23.1568 12.0533 22.9806 12.0533ZM23.3812 11.331C23.5261 11.331 23.6568 11.2912 23.7733 11.2116C23.8897 11.1307 23.9877 11.0178 24.0673 10.8729C24.1468 10.728 24.2022 10.5582 24.2335 10.3636C24.2662 10.169 24.2669 10 24.2356 9.85653C24.2044 9.71307 24.1433 9.60227 24.0524 9.52415C23.9629 9.44602 23.8443 9.40696 23.6966 9.40696C23.5474 9.40696 23.4153 9.44744 23.3002 9.52841C23.1866 9.60937 23.0922 9.72159 23.0169 9.86506C22.943 10.0085 22.8904 10.1747 22.8592 10.3636C22.8279 10.554 22.8258 10.7223 22.8528 10.8686C22.8798 11.0135 22.9373 11.1271 23.0254 11.2095C23.1135 11.2905 23.2321 11.331 23.3812 11.331ZM26.239 12L25.8938 8.72727H26.8121L26.9528 10.9261H26.9826L27.8775 8.72727H28.7788L28.9492 10.9134H28.9769L29.842 8.72727H30.7582L29.3242 12H28.3633L28.1417 9.94176H28.1012L27.1978 12H26.239ZM30.6969 12L31.2424 8.72727H32.1223L32.0265 9.2983H32.0605C32.1543 9.09517 32.28 8.94176 32.4377 8.83807C32.5968 8.73295 32.7679 8.6804 32.9512 8.6804C32.9966 8.6804 33.0442 8.68324 33.0939 8.68892C33.1451 8.69318 33.1905 8.70028 33.2303 8.71023L33.0939 9.51776C33.0542 9.50355 32.9973 9.49219 32.9235 9.48366C32.851 9.47372 32.7821 9.46875 32.7168 9.46875C32.5847 9.46875 32.4618 9.49787 32.3482 9.55611C32.2346 9.61293 32.1387 9.69247 32.0605 9.79474C31.9838 9.89702 31.9334 10.0149 31.9093 10.1484L31.6046 12H30.6969ZM33.152 12L33.6974 8.72727H34.6051L34.0597 12H33.152ZM34.245 8.30114C34.1101 8.30114 33.9986 8.25639 33.9105 8.1669C33.8239 8.07599 33.7884 7.96804 33.804 7.84304C33.8196 7.7152 33.8807 7.60724 33.9872 7.51918C34.0938 7.42969 34.2145 7.38494 34.3494 7.38494C34.4844 7.38494 34.5945 7.42969 34.6797 7.51918C34.7649 7.60724 34.8004 7.7152 34.7862 7.84304C34.772 7.96804 34.7116 8.07599 34.6051 8.1669C34.5 8.25639 34.38 8.30114 34.245 8.30114ZM37.073 8.72727L36.96 9.40909H34.987L35.1021 8.72727H37.073ZM35.6774 7.94318H36.585L36.0779 10.9943C36.0637 11.0781 36.0659 11.1435 36.0843 11.1903C36.1028 11.2358 36.1333 11.2678 36.176 11.2862C36.22 11.3047 36.2725 11.3139 36.3336 11.3139C36.3762 11.3139 36.4196 11.3104 36.4636 11.3033C36.5076 11.2947 36.541 11.2884 36.5637 11.2841L36.5978 11.9595C36.5467 11.9751 36.4778 11.9922 36.3912 12.0107C36.3059 12.0291 36.2051 12.0405 36.0886 12.0447C35.867 12.0533 35.6795 12.0241 35.5261 11.9574C35.3727 11.8892 35.2626 11.7848 35.1958 11.6442C35.1291 11.5036 35.1149 11.3267 35.1532 11.1136L35.6774 7.94318ZM39.405 8.72727L39.2921 9.40909H37.3191L37.4341 8.72727H39.405ZM38.0094 7.94318H38.9171L38.41 10.9943C38.3958 11.0781 38.3979 11.1435 38.4164 11.1903C38.4348 11.2358 38.4654 11.2678 38.508 11.2862C38.552 11.3047 38.6046 11.3139 38.6657 11.3139C38.7083 11.3139 38.7516 11.3104 38.7956 11.3033C38.8397 11.2947 38.873 11.2884 38.8958 11.2841L38.9299 11.9595C38.8787 11.9751 38.8098 11.9922 38.7232 12.0107C38.638 12.0291 38.5371 12.0405 38.4206 12.0447C38.199 12.0533 38.0115 12.0241 37.8581 11.9574C37.7047 11.8892 37.5946 11.7848 37.5279 11.6442C37.4611 11.5036 37.4469 11.3267 37.4853 11.1136L38.0094 7.94318ZM40.8986 12.0639C40.5634 12.0639 40.2857 11.9957 40.0655 11.8594C39.8453 11.7216 39.6905 11.527 39.601 11.2756C39.513 11.0227 39.498 10.7237 39.5563 10.3786C39.6131 10.0419 39.7275 9.74645 39.8993 9.49219C40.0726 9.23793 40.29 9.03977 40.5513 8.89773C40.8127 8.75568 41.1039 8.68466 41.4249 8.68466C41.6408 8.68466 41.8361 8.71946 42.0108 8.78906C42.187 8.85724 42.3333 8.96094 42.4498 9.10014C42.5662 9.23793 42.6458 9.41051 42.6884 9.6179C42.7324 9.82528 42.7317 10.0682 42.6863 10.3466L42.6458 10.5959H39.8844L39.9718 10.0334H41.8809C41.9022 9.9027 41.8936 9.78693 41.8553 9.68608C41.8169 9.58523 41.753 9.50639 41.6635 9.44957C41.574 9.39134 41.464 9.36222 41.3333 9.36222C41.1998 9.36222 41.0748 9.39489 40.9583 9.46023C40.8418 9.52557 40.7438 9.61151 40.6642 9.71804C40.5861 9.82315 40.5357 9.9375 40.513 10.0611L40.4128 10.6193C40.3844 10.7912 40.3901 10.9339 40.4299 11.0476C40.4711 11.1612 40.5421 11.2464 40.6429 11.3033C40.7438 11.3587 40.8716 11.3864 41.0265 11.3864C41.1273 11.3864 41.2218 11.3722 41.3098 11.3438C41.3993 11.3153 41.4789 11.2734 41.5485 11.218C41.6181 11.1612 41.6749 11.0909 41.7189 11.0071L42.5478 11.0625C42.4711 11.2642 42.3546 11.4403 42.1983 11.5909C42.0421 11.7401 41.8539 11.8565 41.6337 11.9403C41.415 12.0227 41.1699 12.0639 40.8986 12.0639ZM44.2347 10.108L43.9194 12H43.0138L43.5593 8.72727H44.4222L44.3285 9.30469H44.3647C44.4684 9.11293 44.6147 8.96165 44.8036 8.85085C44.994 8.74006 45.2106 8.68466 45.4535 8.68466C45.6808 8.68466 45.8704 8.73438 46.0224 8.83381C46.1758 8.93324 46.2837 9.07457 46.3462 9.25781C46.4102 9.44105 46.4208 9.66051 46.3782 9.91619L46.0288 12H45.1211L45.4428 10.0781C45.4755 9.87784 45.4499 9.72159 45.3661 9.60938C45.2837 9.49574 45.1509 9.43892 44.9677 9.43892C44.8455 9.43892 44.7333 9.4652 44.631 9.51776C44.5288 9.57031 44.4428 9.64702 44.3732 9.74787C44.305 9.8473 44.2589 9.96733 44.2347 10.108Z" fill="black"/>
</svg>
