<svg width="52" height="20" viewBox="0 0 52 20" fill="none" xmlns="http://www.w3.org/2000/svg">
<rect x="0.5" y="0.5" width="51" height="19" rx="3.5" fill="#B856FF"/>
<rect x="0.5" y="0.5" width="51" height="19" rx="3.5" stroke="black"/>
<path d="M10.1065 12L10.831 7.63636H11.7536L11.4553 9.43679H13.3281L13.6264 7.63636H14.5469L13.8224 12H12.902L13.2003 10.1974H11.3274L11.0291 12H10.1065ZM16.049 12.0639C15.7152 12.0639 15.4389 11.9929 15.2202 11.8509C15.0014 11.7074 14.8473 11.5085 14.7578 11.2543C14.6697 10.9986 14.6534 10.701 14.7088 10.3615C14.7628 10.0263 14.875 9.73295 15.0455 9.48153C15.2159 9.23011 15.4325 9.0348 15.6953 8.8956C15.9581 8.75497 16.2543 8.68466 16.5838 8.68466C16.9162 8.68466 17.1918 8.75639 17.4105 8.89986C17.6293 9.0419 17.7834 9.24077 17.8729 9.49645C17.9624 9.75213 17.9794 10.0497 17.924 10.3892C17.8686 10.723 17.755 11.0156 17.5831 11.267C17.4112 11.5185 17.1946 11.7145 16.9332 11.8551C16.6719 11.9943 16.3771 12.0639 16.049 12.0639ZM16.1385 11.3608C16.2919 11.3608 16.4276 11.3175 16.5455 11.2308C16.6648 11.1428 16.7635 11.0234 16.8416 10.8729C16.9212 10.7209 16.9766 10.549 17.0078 10.3572C17.0391 10.1683 17.0412 10.0007 17.0142 9.8544C16.9872 9.70668 16.9304 9.5902 16.8438 9.50497C16.7585 9.41974 16.6413 9.37713 16.4922 9.37713C16.3388 9.37713 16.2024 9.42116 16.0831 9.50923C15.9638 9.59588 15.8651 9.7152 15.7869 9.86719C15.7088 10.0192 15.6541 10.1918 15.6229 10.3849C15.593 10.5724 15.5909 10.7401 15.6165 10.8878C15.642 11.0341 15.6982 11.1499 15.7848 11.2351C15.8714 11.3189 15.9893 11.3608 16.1385 11.3608ZM18.2521 12L18.7976 8.72727H19.6605L19.5668 9.30469H19.603C19.7024 9.11293 19.8409 8.96165 20.0185 8.85085C20.1974 8.74006 20.3984 8.68466 20.6214 8.68466C20.843 8.68466 21.0234 8.74077 21.1626 8.85298C21.3033 8.96378 21.3842 9.11435 21.4055 9.30469H21.4396C21.5362 9.11719 21.6818 8.96733 21.8764 8.85511C22.071 8.74148 22.2884 8.68466 22.5284 8.68466C22.831 8.68466 23.0625 8.78196 23.223 8.97656C23.3835 9.17116 23.4339 9.44531 23.3743 9.79901L23.0078 12H22.1001L22.4411 9.97798C22.468 9.79474 22.4411 9.65838 22.3601 9.56889C22.2791 9.47798 22.1662 9.43253 22.0213 9.43253C21.8565 9.43253 21.7195 9.48509 21.6101 9.5902C21.5007 9.69389 21.4332 9.83097 21.4077 10.0014L21.0689 12H20.1889L20.5341 9.95881C20.5582 9.79687 20.532 9.66903 20.4553 9.57528C20.38 9.48011 20.267 9.43253 20.1165 9.43253C20.017 9.43253 19.9226 9.4581 19.8331 9.50923C19.745 9.55895 19.6705 9.62926 19.6094 9.72017C19.5483 9.80966 19.5085 9.91477 19.4901 10.0355L19.1577 12H18.2521ZM25.2013 12.0639C24.8661 12.0639 24.5884 11.9957 24.3683 11.8594C24.1481 11.7216 23.9933 11.527 23.9038 11.2756C23.8157 11.0227 23.8008 10.7237 23.859 10.3786C23.9158 10.0419 24.0302 9.74645 24.2021 9.49219C24.3754 9.23793 24.5927 9.03977 24.854 8.89773C25.1154 8.75568 25.4066 8.68466 25.7276 8.68466C25.9435 8.68466 26.1388 8.71946 26.3136 8.78906C26.4897 8.85724 26.636 8.96094 26.7525 9.10014C26.869 9.23793 26.9485 9.41051 26.9911 9.6179C27.0352 9.82528 27.0344 10.0682 26.989 10.3466L26.9485 10.5959H24.1871L24.2745 10.0334H26.1836C26.2049 9.9027 26.1964 9.78693 26.158 9.68608C26.1197 9.58523 26.0558 9.50639 25.9663 9.44957C25.8768 9.39134 25.7667 9.36222 25.636 9.36222C25.5025 9.36222 25.3775 9.39489 25.261 9.46023C25.1445 9.52557 25.0465 9.61151 24.967 9.71804C24.8888 9.82315 24.8384 9.9375 24.8157 10.0611L24.7156 10.6193C24.6871 10.7912 24.6928 10.9339 24.7326 11.0476C24.7738 11.1612 24.8448 11.2464 24.9457 11.3033C25.0465 11.3587 25.1744 11.3864 25.3292 11.3864C25.43 11.3864 25.5245 11.3722 25.6126 11.3438C25.7021 11.3153 25.7816 11.2734 25.8512 11.218C25.9208 11.1612 25.9776 11.0909 26.0217 11.0071L26.8505 11.0625C26.7738 11.2642 26.6573 11.4403 26.5011 11.5909C26.3448 11.7401 26.1566 11.8565 25.9364 11.9403C25.7177 12.0227 25.4727 12.0639 25.2013 12.0639ZM27.9324 12L27.5872 8.72727H28.5055L28.6461 10.9261H28.676L29.5708 8.72727H30.4721L30.6426 10.9134H30.6703L31.5353 8.72727H32.4515L31.0176 12H30.0566L29.835 9.94176H29.7946L28.8912 12H27.9324ZM33.7912 12.0639C33.4574 12.0639 33.1811 11.9929 32.9624 11.8509C32.7436 11.7074 32.5895 11.5085 32.5 11.2543C32.4119 10.9986 32.3956 10.701 32.451 10.3615C32.505 10.0263 32.6172 9.73295 32.7876 9.48153C32.9581 9.23011 33.1747 9.0348 33.4375 8.8956C33.7003 8.75497 33.9964 8.68466 34.326 8.68466C34.6584 8.68466 34.9339 8.75639 35.1527 8.89986C35.3714 9.0419 35.5256 9.24077 35.6151 9.49645C35.7045 9.75213 35.7216 10.0497 35.6662 10.3892C35.6108 10.723 35.4972 11.0156 35.3253 11.267C35.1534 11.5185 34.9368 11.7145 34.6754 11.8551C34.4141 11.9943 34.1193 12.0639 33.7912 12.0639ZM33.8807 11.3608C34.0341 11.3608 34.1697 11.3175 34.2876 11.2308C34.407 11.1428 34.5057 11.0234 34.5838 10.8729C34.6634 10.7209 34.7188 10.549 34.75 10.3572C34.7812 10.1683 34.7834 10.0007 34.7564 9.8544C34.7294 9.70668 34.6726 9.5902 34.5859 9.50497C34.5007 9.41974 34.3835 9.37713 34.2344 9.37713C34.081 9.37713 33.9446 9.42116 33.8253 9.50923C33.706 9.59588 33.6072 9.7152 33.5291 9.86719C33.451 10.0192 33.3963 10.1918 33.3651 10.3849C33.3352 10.5724 33.3331 10.7401 33.3587 10.8878C33.3842 11.0341 33.4403 11.1499 33.527 11.2351C33.6136 11.3189 33.7315 11.3608 33.8807 11.3608ZM35.9879 12L36.5334 8.72727H37.4134L37.3175 9.2983H37.3516C37.4453 9.09517 37.571 8.94176 37.7287 8.83807C37.8878 8.73295 38.0589 8.6804 38.2422 8.6804C38.2876 8.6804 38.3352 8.68324 38.3849 8.68892C38.4361 8.69318 38.4815 8.70028 38.5213 8.71023L38.3849 9.51776C38.3452 9.50355 38.2884 9.49219 38.2145 9.48366C38.142 9.47372 38.0732 9.46875 38.0078 9.46875C37.8757 9.46875 37.7528 9.49787 37.6392 9.55611C37.5256 9.61293 37.4297 9.69247 37.3516 9.79474C37.2749 9.89702 37.2244 10.0149 37.2003 10.1484L36.8956 12H35.9879ZM39.421 11.0582L39.6021 9.96946H39.7342L40.9934 8.72727H42.0353L40.3564 10.3722H40.139L39.421 11.0582ZM38.443 12L39.1674 7.63636H40.0751L39.3507 12H38.443ZM40.4885 12L39.764 10.5746L40.4735 9.93324L41.5517 12H40.4885Z" fill="black"/>
</svg>
