<svg width="46" height="20" viewBox="0 0 46 20" fill="none" xmlns="http://www.w3.org/2000/svg">
<rect x="0.5" y="0.5" width="45" height="19" rx="3.5" fill="#00C254"/>
<rect x="0.5" y="0.5" width="45" height="19" rx="3.5" stroke="black"/>
<path d="M10.1065 12L10.831 7.63636H12.5526C12.8821 7.63636 13.1527 7.69957 13.3643 7.82599C13.5774 7.95099 13.7266 8.125 13.8118 8.34801C13.8984 8.5696 13.9183 8.82528 13.8714 9.11506C13.8232 9.40625 13.718 9.66264 13.5561 9.88423C13.3956 10.1044 13.1868 10.2763 12.9297 10.3999C12.6726 10.5234 12.3757 10.5852 12.0391 10.5852H10.9418L11.0632 9.84588H12.0114C12.1903 9.84588 12.343 9.81534 12.4695 9.75426C12.5973 9.69176 12.6989 9.60582 12.7741 9.49645C12.8494 9.38565 12.8984 9.25852 12.9212 9.11506C12.9453 8.96875 12.9375 8.84162 12.8977 8.73366C12.858 8.62571 12.7848 8.5419 12.6783 8.48224C12.5732 8.42116 12.4318 8.39062 12.2543 8.39062H11.6321L11.0291 12H10.1065ZM15.4045 12.0639C15.0692 12.0639 14.7915 11.9957 14.5714 11.8594C14.3512 11.7216 14.1964 11.527 14.1069 11.2756C14.0188 11.0227 14.0039 10.7237 14.0621 10.3786C14.119 10.0419 14.2333 9.74645 14.4052 9.49219C14.5785 9.23793 14.7958 9.03977 15.0572 8.89773C15.3185 8.75568 15.6097 8.68466 15.9308 8.68466C16.1467 8.68466 16.342 8.71946 16.5167 8.78906C16.6928 8.85724 16.8391 8.96094 16.9556 9.10014C17.0721 9.23793 17.1516 9.41051 17.1942 9.6179C17.2383 9.82528 17.2376 10.0682 17.1921 10.3466L17.1516 10.5959H14.3903L14.4776 10.0334H16.3867C16.408 9.9027 16.3995 9.78693 16.3612 9.68608C16.3228 9.58523 16.2589 9.50639 16.1694 9.44957C16.0799 9.39134 15.9698 9.36222 15.8391 9.36222C15.7056 9.36222 15.5806 9.39489 15.4641 9.46023C15.3477 9.52557 15.2496 9.61151 15.1701 9.71804C15.092 9.82315 15.0415 9.9375 15.0188 10.0611L14.9187 10.6193C14.8903 10.7912 14.896 10.9339 14.9357 11.0476C14.9769 11.1612 15.0479 11.2464 15.1488 11.3033C15.2496 11.3587 15.3775 11.3864 15.5323 11.3864C15.6332 11.3864 15.7276 11.3722 15.8157 11.3438C15.9052 11.3153 15.9847 11.2734 16.0543 11.218C16.1239 11.1612 16.1808 11.0909 16.2248 11.0071L17.0536 11.0625C16.9769 11.2642 16.8604 11.4403 16.7042 11.5909C16.5479 11.7401 16.3597 11.8565 16.1396 11.9403C15.9208 12.0227 15.6758 12.0639 15.4045 12.0639ZM17.5133 12L18.0588 8.72727H18.9387L18.8429 9.2983H18.877C18.9707 9.09517 19.0964 8.94176 19.2541 8.83807C19.4132 8.73295 19.5843 8.6804 19.7676 8.6804C19.813 8.6804 19.8606 8.68324 19.9103 8.68892C19.9615 8.69318 20.0069 8.70028 20.0467 8.71023L19.9103 9.51776C19.8706 9.50355 19.8137 9.49219 19.7399 9.48366C19.6674 9.47372 19.5985 9.46875 19.5332 9.46875C19.4011 9.46875 19.2782 9.49787 19.1646 9.55611C19.051 9.61293 18.9551 9.69247 18.877 9.79474C18.8002 9.89702 18.7498 10.0149 18.7257 10.1484L18.421 12H17.5133ZM23.0771 9.66051L22.2525 9.71165C22.2482 9.6392 22.2283 9.57457 22.1928 9.51776C22.1587 9.45952 22.1083 9.41335 22.0415 9.37926C21.9762 9.34517 21.8938 9.32812 21.7944 9.32812C21.6452 9.32812 21.5124 9.36222 21.396 9.4304C21.2795 9.49858 21.2134 9.58594 21.1978 9.69247C21.185 9.76065 21.2028 9.81818 21.2511 9.86506C21.2994 9.91193 21.3967 9.9517 21.543 9.98438L22.1183 10.1037C22.4251 10.169 22.6467 10.2777 22.783 10.4297C22.9208 10.5817 22.9698 10.7805 22.93 11.0263C22.8945 11.2351 22.8029 11.4176 22.6552 11.5739C22.5075 11.7287 22.32 11.8494 22.0927 11.9361C21.8654 12.0213 21.6133 12.0639 21.3363 12.0639C20.8917 12.0639 20.5536 11.973 20.3221 11.7912C20.0906 11.6094 19.979 11.3629 19.9876 11.0518L20.8739 11.005C20.881 11.1385 20.9279 11.2393 21.0146 11.3075C21.1012 11.3743 21.2198 11.4084 21.3704 11.4098C21.5394 11.4126 21.6829 11.3778 21.8008 11.3054C21.9201 11.2315 21.9876 11.142 22.0032 11.0369C22.0146 10.9631 21.9933 10.9034 21.9393 10.858C21.8867 10.8125 21.7901 10.7749 21.6495 10.745L21.104 10.6321C20.7944 10.5682 20.5721 10.4538 20.4371 10.2891C20.3022 10.1243 20.256 9.91477 20.2987 9.66051C20.3327 9.45739 20.4173 9.28338 20.5522 9.13849C20.6886 8.99219 20.864 8.87997 21.0785 8.80185C21.2944 8.72372 21.538 8.68466 21.8093 8.68466C22.234 8.68466 22.5536 8.77202 22.7681 8.94673C22.984 9.12145 23.087 9.35937 23.0771 9.66051ZM24.8205 12.0639C24.4867 12.0639 24.2104 11.9929 23.9917 11.8509C23.7729 11.7074 23.6188 11.5085 23.5293 11.2543C23.4412 10.9986 23.4249 10.701 23.4803 10.3615C23.5343 10.0263 23.6465 9.73295 23.8169 9.48153C23.9874 9.23011 24.204 9.0348 24.4668 8.8956C24.7296 8.75497 25.0257 8.68466 25.3553 8.68466C25.6877 8.68466 25.9632 8.75639 26.182 8.89986C26.4007 9.0419 26.5549 9.24077 26.6444 9.49645C26.7338 9.75213 26.7509 10.0497 26.6955 10.3892C26.6401 10.723 26.5265 11.0156 26.3546 11.267C26.1827 11.5185 25.9661 11.7145 25.7047 11.8551C25.4434 11.9943 25.1486 12.0639 24.8205 12.0639ZM24.91 11.3608C25.0634 11.3608 25.199 11.3175 25.3169 11.2308C25.4363 11.1428 25.535 11.0234 25.6131 10.8729C25.6926 10.7209 25.748 10.549 25.7793 10.3572C25.8105 10.1683 25.8127 10.0007 25.7857 9.8544C25.7587 9.70668 25.7019 9.5902 25.6152 9.50497C25.53 9.41974 25.4128 9.37713 25.2637 9.37713C25.1103 9.37713 24.9739 9.42116 24.8546 9.50923C24.7353 9.59588 24.6365 9.7152 24.5584 9.86719C24.4803 10.0192 24.4256 10.1918 24.3944 10.3849C24.3645 10.5724 24.3624 10.7401 24.388 10.8878C24.4135 11.0341 24.4696 11.1499 24.5563 11.2351C24.6429 11.3189 24.7608 11.3608 24.91 11.3608ZM28.2445 10.108L27.9292 12H27.0236L27.5691 8.72727H28.432L28.3382 9.30469H28.3745C28.4782 9.11293 28.6245 8.96165 28.8134 8.85085C29.0037 8.74006 29.2203 8.68466 29.4632 8.68466C29.6905 8.68466 29.8801 8.73438 30.0321 8.83381C30.1855 8.93324 30.2935 9.07457 30.356 9.25781C30.4199 9.44105 30.4306 9.66051 30.388 9.91619L30.0385 12H29.1309L29.4526 10.0781C29.4853 9.87784 29.4597 9.72159 29.3759 9.60938C29.2935 9.49574 29.1607 9.43892 28.9775 9.43892C28.8553 9.43892 28.7431 9.4652 28.6408 9.51776C28.5385 9.57031 28.4526 9.64702 28.383 9.74787C28.3148 9.8473 28.2686 9.96733 28.2445 10.108ZM31.6744 12.0618C31.467 12.0618 31.2873 12.0256 31.1353 11.9531C30.9847 11.8793 30.8739 11.7699 30.8029 11.625C30.7319 11.4801 30.7141 11.3004 30.7496 11.0859C30.7809 10.9041 30.8398 10.7521 30.9265 10.63C31.0146 10.5064 31.1218 10.407 31.2482 10.3317C31.3746 10.2564 31.5146 10.1989 31.668 10.1591C31.8228 10.1193 31.9826 10.0923 32.1474 10.0781C32.3377 10.0582 32.4925 10.0391 32.6119 10.0206C32.7326 10.0021 32.8228 9.97585 32.8825 9.94176C32.9421 9.90625 32.9783 9.85369 32.9911 9.78409V9.77131C33.0124 9.63778 32.9876 9.53409 32.9165 9.46023C32.8469 9.38494 32.7354 9.3473 32.582 9.3473C32.4201 9.3473 32.2823 9.38281 32.1687 9.45384C32.0565 9.52486 31.9762 9.61506 31.9279 9.72443L31.1012 9.65625C31.1751 9.45739 31.2866 9.28551 31.4357 9.14062C31.5863 8.99432 31.7674 8.8821 31.979 8.80398C32.1907 8.72443 32.4279 8.68466 32.6907 8.68466C32.8725 8.68466 33.0423 8.70597 33.1999 8.74858C33.359 8.79119 33.4961 8.85724 33.6112 8.94673C33.7276 9.03622 33.8114 9.15128 33.8626 9.2919C33.9151 9.43111 33.9258 9.59801 33.8945 9.79261L33.5259 12H32.6651L32.7418 11.5462H32.7163C32.6467 11.6484 32.5614 11.7386 32.4606 11.8168C32.3597 11.8935 32.244 11.9538 32.1133 11.9979C31.9826 12.0405 31.8363 12.0618 31.6744 12.0618ZM32.0387 11.4354C32.1708 11.4354 32.2923 11.4091 32.4031 11.3565C32.5153 11.3026 32.6076 11.2301 32.68 11.1392C32.7539 11.0483 32.8008 10.9453 32.8207 10.8303L32.8761 10.483C32.8477 10.5014 32.8065 10.5178 32.7525 10.532C32.6999 10.5462 32.6424 10.5597 32.5799 10.5724C32.5188 10.5838 32.457 10.5945 32.3945 10.6044C32.332 10.6129 32.2759 10.6214 32.2262 10.63C32.1168 10.6456 32.0188 10.6705 31.9322 10.7045C31.8455 10.7386 31.7752 10.7848 31.7212 10.843C31.6673 10.8999 31.6339 10.9709 31.6211 11.0561C31.6012 11.1797 31.6303 11.2741 31.7085 11.3395C31.788 11.4034 31.8981 11.4354 32.0387 11.4354ZM35.8622 7.63636L35.1378 12H34.2301L34.9545 7.63636H35.8622Z" fill="black"/>
</svg>
