<svg width="41" height="20" viewBox="0 0 41 20" fill="none" xmlns="http://www.w3.org/2000/svg">
<rect x="0.5" y="0.5" width="40" height="19" rx="3.5" fill="#FFDD00"/>
<rect x="0.5" y="0.5" width="40" height="19" rx="3.5" stroke="black"/>
<path d="M13.5263 7.63636H14.4489L13.9801 10.4702C13.9276 10.7884 13.8061 11.0668 13.6158 11.3054C13.4254 11.544 13.1832 11.7301 12.8892 11.8636C12.5952 11.9957 12.267 12.0618 11.9048 12.0618C11.5426 12.0618 11.2372 11.9957 10.9886 11.8636C10.7401 11.7301 10.5604 11.544 10.4496 11.3054C10.3388 11.0668 10.3097 10.7884 10.3622 10.4702L10.831 7.63636H11.7536L11.2955 10.3913C11.2699 10.5575 11.2827 10.7053 11.3338 10.8345C11.3864 10.9638 11.473 11.0653 11.5938 11.1392C11.7145 11.2131 11.8636 11.25 12.0412 11.25C12.2202 11.25 12.3821 11.2131 12.527 11.1392C12.6733 11.0653 12.7933 10.9638 12.8871 10.8345C12.9822 10.7053 13.0426 10.5575 13.0682 10.3913L13.5263 7.63636ZM16.1305 7.63636L15.4061 12H14.4835L15.2079 7.63636H16.1305ZM20.5288 9.87784C20.4492 10.3437 20.2951 10.7393 20.0664 11.0646C19.8391 11.3899 19.5614 11.6371 19.2333 11.8061C18.9066 11.9751 18.5543 12.0597 18.1765 12.0597C17.7802 12.0597 17.4386 11.9695 17.1516 11.7891C16.8661 11.6087 16.6594 11.348 16.5316 11.0071C16.4038 10.6648 16.3796 10.2521 16.4592 9.76918C16.5359 9.30185 16.6886 8.90554 16.9173 8.58026C17.146 8.25355 17.4251 8.00497 17.7546 7.83452C18.0842 7.66264 18.4386 7.5767 18.8178 7.5767C19.2113 7.5767 19.5508 7.66761 19.8363 7.84943C20.1232 8.03125 20.3299 8.29403 20.4563 8.63778C20.5842 8.98011 20.6083 9.39347 20.5288 9.87784ZM19.6104 9.76918C19.6602 9.46946 19.658 9.21804 19.604 9.01491C19.5515 8.81037 19.4549 8.65554 19.3143 8.55043C19.1737 8.44531 18.9961 8.39276 18.7816 8.39276C18.5487 8.39276 18.3349 8.45099 18.1403 8.56747C17.9471 8.68395 17.7837 8.85298 17.6502 9.07457C17.5181 9.29474 17.4265 9.5625 17.3754 9.87784C17.3242 10.179 17.3256 10.4304 17.3796 10.6321C17.435 10.8338 17.5337 10.9865 17.6758 11.0902C17.8192 11.1925 17.9975 11.2436 18.2106 11.2436C18.4421 11.2436 18.6538 11.1868 18.8455 11.0732C19.0387 10.9581 19.2013 10.7912 19.3335 10.5724C19.4656 10.3523 19.5579 10.0845 19.6104 9.76918ZM21.6767 12L21.1525 7.63636H22.1603L22.3819 10.6683H22.4181L23.7157 7.63636H24.5787L24.8727 10.6747H24.911L26.1341 7.63636H27.1419L25.1689 12H24.2697L23.916 9.14702H23.8819L22.5758 12H21.6767ZM27.2239 12H26.2353L28.4661 7.63636H29.655L30.4348 12H29.4462L28.9157 8.63352H28.8816L27.2239 12ZM27.4498 10.2848H29.785L29.6614 11.005H27.3262L27.4498 10.2848Z" fill="black"/>
</svg>
